<?xml version="1.0" standalone="no"?>
<!DOCTYPE svg PUBLIC "-//W3C//DTD SVG 20010904//EN"
 "http://www.w3.org/TR/2001/REC-SVG-20010904/DTD/svg10.dtd">
<svg version="1.0" xmlns="http://www.w3.org/2000/svg"
 width="180.000000pt" height="50.000000pt" viewBox="0 0 449.000000 125.000000"
 preserveAspectRatio="xMidYMid meet">

<g transform="translate(0.000000,125.000000) scale(0.100000,-0.100000)"
fill="#000000" stroke="none">
<path d="M3935 1166 c-27 -13 -63 -38 -79 -55 -17 -17 -36 -31 -43 -31 -8 0
-12 -4 -9 -8 3 -5 -4 -21 -15 -38 -10 -16 -19 -24 -19 -19 0 6 6 19 14 30 19
28 20 36 4 46 -11 8 -11 10 0 18 11 6 10 10 -3 15 -45 17 -113 -7 -167 -59
-31 -29 -37 -70 -13 -101 8 -10 15 -22 15 -25 0 -4 -29 -9 -64 -11 -50 -3 -73
-10 -106 -33 -55 -38 -108 -108 -116 -153 -7 -37 14 -116 29 -112 5 1 15 -7
23 -17 12 -17 14 -16 15 12 1 17 2 36 2 43 -1 7 2 11 5 7 10 -10 72 58 72 79
0 15 3 17 12 8 8 -8 19 -7 42 6 17 9 34 21 37 25 3 5 10 8 15 7 4 -1 11 7 15
17 6 14 8 15 8 2 1 -9 -17 -30 -38 -47 -24 -20 -52 -57 -72 -97 -30 -60 -31
-70 -26 -136 9 -107 77 -236 134 -253 19 -6 22 -4 16 11 -3 10 -10 24 -16 31
-7 8 -5 12 7 12 15 0 17 10 15 63 -2 34 -7 67 -11 73 -6 8 -3 11 7 10 11 -1
23 21 41 73 13 40 32 87 40 103 14 27 14 32 -1 54 l-16 25 25 -16 c23 -16 25
-15 36 5 6 11 8 31 4 43 -6 20 -5 20 10 8 14 -12 19 -11 31 5 15 18 17 17 56
-25 125 -138 203 -482 143 -630 -20 -49 -18 -53 24 -46 69 11 80 15 85 28 7
19 -11 191 -29 277 -31 145 -106 299 -187 388 l-40 42 31 0 c42 0 62 9 62 29
1 15 2 15 13 0 15 -20 134 -33 141 -16 3 9 5 8 5 0 2 -26 21 -12 21 15 l1 27
14 -32 c9 -22 23 -34 42 -39 15 -3 53 -13 83 -22 30 -8 61 -14 68 -13 6 1 12
-4 13 -11 1 -7 5 -2 9 12 8 23 8 24 9 3 1 -20 46 -73 62 -73 12 0 -8 76 -34
126 -35 69 -123 148 -188 169 -61 20 -177 16 -246 -8 -22 -9 -44 -13 -47 -10
-7 7 128 73 150 73 10 0 14 5 10 15 -6 17 9 21 19 5 8 -13 85 -10 85 4 0 5 11
-1 25 -14 l25 -24 -4 33 c-4 38 -47 88 -93 107 -50 22 -130 17 -188 -10z"/>
<path d="M2510 944 c-6 -14 -10 -38 -10 -54 0 -27 -2 -29 -24 -19 -70 32 -115
-105 -62 -186 19 -28 57 -33 79 -10 13 13 16 13 21 0 7 -20 32 -19 40 1 8 20
8 258 0 278 -9 24 -33 19 -44 -10z m-20 -148 c16 -20 9 -56 -13 -70 -21 -13
-37 5 -37 45 0 40 26 53 50 25z"/>
<path d="M1493 935 l-33 -14 0 -116 c0 -117 9 -155 35 -155 14 0 35 56 35 93
0 10 8 17 19 17 11 0 33 14 50 31 25 25 31 39 31 75 0 76 -56 105 -137 69z
m74 -71 c4 -11 -1 -22 -13 -31 -17 -12 -20 -12 -25 9 -3 13 -4 26 -2 31 7 13
34 7 40 -9z"/>
<path d="M2657 933 c-14 -13 -6 -24 15 -21 27 4 36 28 11 28 -11 0 -23 -3 -26
-7z"/>
<path d="M304 916 c-150 -65 -243 -324 -185 -514 39 -129 114 -198 205 -188
87 10 157 79 192 191 12 36 25 56 45 68 31 17 54 61 45 84 -9 24 -72 43 -138
43 -74 0 -143 -27 -153 -60 -8 -25 16 -66 45 -75 33 -10 19 -49 -27 -73 -30
-17 -39 -15 -62 9 -79 85 15 414 109 384 17 -5 20 -15 20 -61 0 -128 117 -125
134 4 16 122 -46 203 -156 202 -23 -1 -57 -7 -74 -14z"/>
<path d="M740 907 c-65 -32 -110 -175 -118 -367 -6 -169 15 -276 60 -304 14
-8 22 -6 39 11 31 31 49 112 56 248 l6 119 34 -129 c53 -202 104 -275 147
-213 22 30 62 161 85 273 l18 90 7 -55 c18 -143 40 -260 58 -308 16 -44 24
-53 41 -50 41 6 59 66 65 217 10 285 -43 471 -133 471 -52 0 -78 -38 -168
-243 -13 -29 -13 -28 -46 57 -38 97 -80 170 -108 185 -14 7 -27 6 -43 -2z"/>
<path d="M2809 871 c-34 -35 -36 -59 -9 -94 27 -35 25 -49 -11 -70 -37 -21
-33 -41 9 -45 25 -3 39 4 62 27 35 35 38 59 10 94 -25 32 -25 45 2 66 26 21
19 51 -12 51 -12 0 -35 -13 -51 -29z"/>
<path d="M2998 873 c-28 -32 -38 -61 -38 -108 0 -38 5 -52 29 -76 16 -16 38
-29 48 -29 29 0 83 38 83 58 0 29 -10 33 -42 16 -30 -16 -58 -13 -58 6 0 5 8
10 19 10 28 0 71 48 71 80 0 15 -8 34 -18 43 -24 22 -75 22 -94 0z m62 -48 c0
-15 -26 -32 -36 -23 -2 3 -2 13 2 22 8 20 34 21 34 1z"/>
<path d="M1717 862 c-9 -10 -17 -27 -17 -36 0 -14 5 -17 23 -11 12 4 33 8 47
9 36 2 32 -26 -5 -36 -66 -17 -96 -76 -57 -111 22 -20 45 -21 74 -6 17 9 23 8
30 -5 14 -24 37 -19 44 10 11 44 -3 145 -24 173 -25 34 -90 41 -115 13z m83
-126 c0 -16 -27 -29 -41 -20 -13 8 9 34 27 34 8 0 14 -6 14 -14z"/>
<path d="M2170 860 c-11 -11 -20 -25 -20 -30 0 -16 30 -24 43 -11 19 19 57 14
57 -9 0 -12 -7 -20 -17 -20 -10 0 -33 -9 -50 -20 -71 -43 -16 -139 57 -100 15
8 21 6 28 -6 13 -24 40 -11 48 23 10 38 -11 151 -32 174 -24 26 -87 26 -114
-1z m90 -120 c0 -11 -40 -34 -47 -26 -3 3 -3 12 0 21 7 16 47 21 47 5z"/>
<path d="M2649 853 c-14 -37 -7 -169 9 -185 25 -24 42 18 42 103 0 43 -3 84
-6 93 -10 25 -33 19 -45 -11z"/>
<path d="M1947 863 c-13 -12 -8 -178 6 -196 21 -29 40 -4 45 60 5 70 14 83 58
83 36 0 47 10 38 34 -9 24 -50 31 -78 12 -21 -13 -25 -13 -30 -1 -6 16 -28 20
-39 8z"/>
<path d="M1705 475 c-22 -8 -41 -15 -43 -15 -1 0 -1 -57 0 -127 3 -119 4 -128
23 -128 13 0 21 9 25 31 14 67 29 69 53 9 13 -31 25 -45 38 -45 24 0 26 47 4
91 -15 28 -15 31 5 56 28 36 26 88 -5 118 -28 28 -44 30 -100 10z m59 -70 c3
-9 -4 -25 -17 -38 l-22 -22 -3 23 c-2 13 -1 30 2 38 7 19 32 18 40 -1z"/>
<path d="M2734 446 c-4 -25 -12 -36 -30 -40 -29 -8 -32 -32 -4 -39 18 -5 20
-14 20 -76 0 -79 13 -95 73 -89 24 2 33 8 35 25 3 17 -2 22 -25 25 -31 3 -39
27 -29 83 5 24 13 35 32 39 30 8 27 30 -4 34 -18 3 -22 10 -22 38 0 27 -4 34
-20 34 -14 0 -21 -9 -26 -34z"/>
<path d="M1933 415 c-29 -20 -47 -83 -39 -129 7 -38 46 -76 78 -76 29 0 84 58
69 73 -9 9 -16 9 -31 -1 -23 -14 -60 -16 -60 -3 0 5 14 14 30 21 17 7 35 21
40 31 35 65 -28 126 -87 84z m57 -44 c0 -12 -29 -35 -36 -28 -11 10 5 37 21
37 8 0 15 -4 15 -9z"/>
<path d="M2130 410 c-25 -25 -25 -57 0 -95 l20 -30 -32 -26 c-34 -29 -31 -49
8 -49 30 0 84 50 84 78 0 10 -9 27 -20 37 -11 10 -20 23 -20 30 0 7 9 20 20
30 11 10 20 24 20 32 0 21 -57 16 -80 -7z"/>
<path d="M2311 403 c-63 -52 -33 -203 41 -203 49 0 91 95 67 157 -23 62 -66
80 -108 46z m62 -91 c0 -51 -10 -67 -29 -51 -17 14 -19 80 -2 97 18 18 31 -1
31 -46z"/>
<path d="M2507 403 c-4 -3 -7 -43 -7 -88 0 -128 41 -157 52 -36 6 60 23 81 62
74 27 -5 39 7 30 31 -9 25 -52 31 -73 12 -16 -15 -19 -15 -24 -1 -7 15 -28 20
-40 8z"/>
</g>
</svg>
